<?xml version="1.0" encoding="UTF-8"?>
<svg id="A-13" xmlns="http://www.w3.org/2000/svg" width="821.1" height="725.42" viewBox="0 0 821.1 725.42">
  <path d="M363.78,27L7.32,644.42c-20.78,36,5.2,81,46.77,81h712.94c41.57,0,67.55-45,46.77-81L457.32,27c-20.78-36-72.75-36-93.53,0Z" fill="#d40000"/>
  <path d="M33.3,659.42L389.77,42c9.24-16,32.33-16,41.57,0l356.47,617.42c9.24,16-2.31,36-20.78,36H54.08c-18.48,0-30.02-20-20.78-36Z" fill="#febe0b"/>
  <g>
    <polyline points="523.05 317.42 230.55 500.42 198.73 449.56 491.23 266.56"/>
    <polygon points="63.41 657.92 230.55 657.92 230.55 500.42 153.41 500.42 63.41 657.92"/>
    <path d="M579.3,581.38v22.5c-9.93,5.75-21.45,9.04-33.75,9.04-17.29,0-33.06-6.5-45-17.19-11.94,10.69-27.71,17.19-45,17.19s-33.06-6.5-45-17.19c-11.94,10.69-27.71,17.19-45,17.19s-33.06-6.5-45-17.19c-11.94,10.69-27.71,17.19-45,17.19-12.3,0-23.82-3.29-33.75-9.04v-22.5c9.93,5.75,21.45,9.04,33.75,9.04,17.29,0,33.06-6.5,45-17.19,11.94,10.69,27.71,17.19,45,17.19s33.06-6.5,45-17.19c11.94,10.69,27.71,17.19,45,17.19s33.06-6.5,45-17.19c11.94,10.69,27.71,17.19,45,17.19,12.3,0,23.82-3.29,33.75-9.04Z"/>
    <path d="M579.3,632.88v22.5c-9.93,5.75-21.45,9.04-33.75,9.04-17.29,0-33.06-6.5-45-17.19-11.94,10.69-27.71,17.19-45,17.19s-33.06-6.5-45-17.19c-11.94,10.69-27.71,17.19-45,17.19s-33.06-6.5-45-17.19c-11.94,10.69-27.71,17.19-45,17.19-12.3,0-23.82-3.29-33.75-9.04v-22.5c9.93,5.75,21.45,9.04,33.75,9.04,17.29,0,33.06-6.5,45-17.19,11.94,10.69,27.71,17.19,45,17.19s33.06-6.5,45-17.19c11.94,10.69,27.71,17.19,45,17.19s33.06-6.5,45-17.19c11.94,10.69,27.71,17.19,45,17.19,12.3,0,23.82-3.29,33.75-9.04Z"/>
    <polygon points="757.69 657.92 590.55 657.92 590.55 500.42 667.69 500.42 757.69 657.92"/>
  </g>
</svg>