<?xml version="1.0" encoding="UTF-8" standalone="no"?>
<svg
   xmlns:dc="http://purl.org/dc/elements/1.1/"
   xmlns:cc="http://creativecommons.org/ns#"
   xmlns:rdf="http://www.w3.org/1999/02/22-rdf-syntax-ns#"
   xmlns:svg="http://www.w3.org/2000/svg"
   xmlns="http://www.w3.org/2000/svg"
   xmlns:sodipodi="http://sodipodi.sourceforge.net/DTD/sodipodi-0.dtd"
   xmlns:inkscape="http://www.inkscape.org/namespaces/inkscape"
   version="1.1"
   width="502.60037"
   height="441.06461"
   id="svg2"
   inkscape:version="0.48.4 r9939"
   sodipodi:docname="Ajax.svg">
  <metadata
     id="metadata16">
    <rdf:RDF>
      <cc:Work
         rdf:about="">
        <dc:format>image/svg+xml</dc:format>
        <dc:type
           rdf:resource="http://purl.org/dc/dcmitype/StillImage" />
        <dc:title />
      </cc:Work>
    </rdf:RDF>
  </metadata>
  <defs
     id="defs14" />
  <sodipodi:namedview
     pagecolor="#ffffff"
     bordercolor="#666666"
     borderopacity="1"
     objecttolerance="10"
     gridtolerance="10"
     guidetolerance="10"
     inkscape:pageopacity="0"
     inkscape:pageshadow="2"
     inkscape:window-width="1280"
     inkscape:window-height="1001"
     id="namedview12"
     showgrid="false"
     fit-margin-top="1.3"
     fit-margin-left="1.3"
     fit-margin-right="1.3"
     fit-margin-bottom="1.3"
     inkscape:zoom="0.96308018"
     inkscape:cx="220.09079"
     inkscape:cy="115.38521"
     inkscape:window-x="-8"
     inkscape:window-y="-8"
     inkscape:window-maximized="1"
     inkscape:current-layer="svg2" />
  <path
     d="m 268.92024,11.472896 a 20.345787,20.345787 0 0 0 -35.23994,0 L 4.0256393,409.24569 a 20.345787,20.345787 0 0 0 17.6197997,30.51837 l 459.309171,5.5e-4 a 20.345787,20.345787 0 0 0 17.61996,-30.51866 z"
     style="fill:#ffffff;stroke:#000000;stroke-width:2;stroke-miterlimit:4;stroke-opacity:1;stroke-dasharray:none"
     id="path6"
     inkscape:connector-curvature="0" />
  <path
     d="m 251.30027,94.896826 166.23139,287.892884 -332.463251,0 z M 11.071519,413.32018 c -2.1249597,3.69002 -2.1213997,8.51259 0.009,12.19948 2.13039,3.68689 6.30681,6.09825 10.56494,6.09994 l 459.309181,0 c 4.25813,-0.002 8.43455,-2.41305 10.56494,-6.09994 2.13039,-3.68689 2.13394,-8.50945 0.009,-12.19947 L 261.87234,15.548206 c -2.13058,-3.6904 -6.3108,-6.1038894 -10.57207,-6.1038894 -4.26127,0 -8.44149,2.4134894 -10.57207,6.1038894 z"
     style="fill:#cf181f;fill-opacity:1;stroke:none"
     id="path8"
     inkscape:connector-curvature="0"
     sodipodi:nodetypes="cccccsccsccscc" />
  <path
     inkscape:connector-curvature="0"
     d="m 257.35747,204.8635 18.09049,-18.09693 18.09693,18.09693 0,65.17214 c 0,0.15462 0,0.30924 0,0.45768 0,3.22124 -0.45742,6.28786 -1.37868,9.35448 -0.76667,3.06662 -2.1518,5.98507 -3.6851,8.74245 -1.68149,2.76382 -3.67866,5.21841 -5.97863,7.36375 -2.14535,2.29997 -4.75455,4.13608 -7.51194,5.67583 -2.76382,1.53331 -5.67582,2.75738 -8.74244,3.52404 -3.06663,0.76665 -6.28785,1.22407 -9.35449,1.06945 -3.22124,0 -6.28786,-0.45767 -9.19985,-1.37869 -3.06663,-0.76666 -6.13326,-1.99073 -8.74246,-3.67866 -0.76665,-0.45767 -1.37868,-0.92127 -2.14535,-1.37869 l 0,0.14792 -30.51802,-21.46635 -0.15467,0 0,92.32076 -18.09694,-18.09693 -18.09047,18.09693 0,-92.32076 c 0,-0.15462 0,-0.30305 0,-0.45767 0,-3.22119 0.45742,-6.44243 1.37869,-9.35448 0.76666,-3.06663 1.99073,-5.98502 3.67867,-8.7424 1.53331,-2.75743 3.53047,-5.21202 5.83041,-7.51198 2.29999,-2.15179 4.90275,-3.9879 7.66656,-5.52121 2.75739,-1.68793 5.6694,-2.76377 8.74246,-3.53048 3.06662,-0.76666 6.28786,-1.22407 9.35448,-1.06945 3.2148,0 6.28786,0.45767 9.35449,1.22412 3.06662,0.92122 5.97861,2.14535 8.73599,3.83322 0.61849,0.30924 1.38513,0.92133 2.1518,1.23052 l 30.36342,21.4664 0.15467,0 0,-65.17214"
     style="fill:#000000;fill-opacity:1;fill-rule:evenodd;stroke:none"
     id="path3682" />
</svg>
