<?xml version="1.0" encoding="UTF-8" standalone="no"?>
<svg
   width="24"
   height="24"
   viewBox="0 0 24 24"
   fill="none"
   version="1.1"
   id="svg2"
   sodipodi:docname="Icon-24-checkmark.svg"
   xmlns:inkscape="http://www.inkscape.org/namespaces/inkscape"
   xmlns:sodipodi="http://sodipodi.sourceforge.net/DTD/sodipodi-0.dtd"
   xmlns="http://www.w3.org/2000/svg"
   xmlns:svg="http://www.w3.org/2000/svg">
  <defs
     id="defs2" />
  <sodipodi:namedview
     id="namedview2"
     pagecolor="#ffffff"
     bordercolor="#111111"
     borderopacity="1"
     inkscape:showpageshadow="0"
     inkscape:pageopacity="0"
     inkscape:pagecheckerboard="1"
     inkscape:deskcolor="#d1d1d1" />
  <path
     fill="currentColor"
     d="M 12,1 C 5.9367104,1 1,5.9367104 1,12 1,18.063244 5.9367044,23 12,23 18.06325,23 23,18.06325 23,12 23,5.9367044 18.063244,1 12,1 Z m 0,2 c 4.982356,0 9,4.0175956 9,9 0,4.98235 -4.01765,9 -9,9 C 7.0175956,21 3,16.982356 3,12 3,7.0175896 7.0175896,3 12,3 Z"
     id="path1" />
  <path
     fill="currentColor"
     d="M 15.957031,8 A 1,1 0 0 0 15.263672,8.3242188 L 10.5,13.521484 8.7363281,11.597656 a 1,1 0 0 0 -1.4121094,-0.0625 1,1 0 0 0 -0.060547,1.414063 l 2.5,2.726562 a 1.0001,1.0001 0 0 0 1.4726561,0 l 5.5,-5.9999997 A 1,1 0 0 0 16.675781,8.2636719 1,1 0 0 0 15.957031,8 Z"
     id="path2" />
</svg>
